<svg xmlns="http://www.w3.org/2000/svg" aria-label="Mongolian Style Board Members Icon" viewBox="-10 -10 140 140"><defs><path id="a" fill="#dc2626" d="M60 12C45 12 38-2 52 2c6 2 6 8 8 8s2-6 8-8c14-4 7 10-8 10"/></defs><g fill="none"><circle cx="60" cy="60" r="45" stroke="#1e3a8a" stroke-width="6"/><circle cx="60" cy="60" r="32" stroke="#f59e0b" stroke-width="2.5"/></g><use href="#a"/><use href="#a" transform="rotate(90 60 60)"/><use href="#a" transform="rotate(180 60 60)"/><use href="#a" transform="rotate(270 60 60)"/><g stroke="#fff" stroke-linejoin="round" stroke-width="2"><path fill="#1e3a8a" d="M44 63c-10 0-14 15-14 25h28c0-10-4-25-14-25Z"/><path fill="#f59e0b" d="m44 53-7 8h14z"/><circle cx="44" cy="49" r="3.5" fill="#dc2626"/><path stroke="#f59e0b" stroke-linecap="round" stroke-width="2.5" d="M33 80h22"/><path stroke-linecap="round" stroke-width="1.5" d="m44 63-6 9"/><path fill="#1e3a8a" d="M76 63c-10 0-14 15-14 25h28c0-10-4-25-14-25Z"/><path fill="#f59e0b" d="m76 53-7 8h14z"/><circle cx="76" cy="49" r="3.5" fill="#dc2626"/><path stroke="#f59e0b" stroke-linecap="round" stroke-width="2.5" d="M65 80h22"/><path stroke-linecap="round" stroke-width="1.5" d="m76 63-6 9"/><path fill="#1e3a8a" d="M60 54c-12 0-18 21-18 34h36c0-13-6-34-18-34Z"/><path fill="#f59e0b" d="m60 42-9 10h18z"/><circle cx="60" cy="37" r="4.5" fill="#dc2626"/><path stroke="#f59e0b" stroke-linecap="round" stroke-width="3" d="M45 78h30"/><path stroke-linecap="round" d="m60 54-8 12"/></g></svg>