<svg xmlns="http://www.w3.org/2000/svg" aria-label="Mongolian Style Mission Icon" viewBox="-10 -10 140 140">
<defs>
    <path id="a" fill="#dc2626" d="M60 12C45 12 38-2 52 2c6 2 6 8 8 8s2-6 8-8c14-4 7 10-8 10"/>
</defs>
<g stroke="#1e3a8a" stroke-linecap="round" stroke-width="2.5">
    <path d="M60 15v90M15 60h90M28.18 28.18l63.64 63.64M28.18 91.82l63.64-63.64"/>
</g>
<circle cx="60" cy="60" r="45" fill="none" stroke="#1e3a8a" stroke-width="6"/>
<circle cx="60" cy="60" r="32" fill="none" stroke="#f59e0b" stroke-width="2.5"/>
<circle cx="60" cy="60" r="20" fill="none" stroke="#1e3a8a" stroke-width="2.5"/>
<circle cx="60" cy="60" r="9" fill="#dc2626" stroke="#fff" stroke-width="2"/>
<use href="#a"/>
<use href="#a" transform="rotate(90 60 60)"/>
<use href="#a" transform="rotate(180 60 60)"/>
<use href="#a" transform="rotate(270 60 60)"/>
    <g transform="rotate(45 -42.426 102.426)">
        <g fill="#fff" stroke="#fff" stroke-linejoin="round">
            <path stroke-linecap="round" stroke-width="8" d="M0 5v59"/>
            <path d="m0-2-8 12 8-4 8 4Z"/>
            <rect width="12" height="10" x="-6" y="11" rx="4"/>
            <path d="m-3 37-11 7v20l11-7ZM3 37l11 7v20L3 57Z"/>
        </g>
        <path fill="#f59e0b" d="m0 0-6 9 6-3 6 3Z"/>
        <rect width="8" height="6" x="-4" y="13" fill="#1e3a8a" rx="2"/>
        <path stroke="#f59e0b" stroke-linecap="round" stroke-width="4" d="M0 5v57"/>
        <path fill="#dc2626" d="m-2 39-10 7v16l10-7ZM2 39l10 7v16L2 55Z"/>
    </g>
</svg>