<svg xmlns="http://www.w3.org/2000/svg">

  <symbol id="mission" viewBox="-10 -10 140 140" aria-label="Mongolian Style Mission Icon">
    <defs>
      <path id="mission-a" fill="#dc2626" d="M60 12C45 12 38-2 52 2c6 2 6 8 8 8s2-6 8-8c14-4 7 10-8 10"/>
    </defs>
    <g stroke="#1e3a8a" stroke-linecap="round" stroke-width="2.5">
      <path d="M60 15v90M15 60h90M28.18 28.18l63.64 63.64M28.18 91.82l63.64-63.64"/>
    </g>
    <circle cx="60" cy="60" r="45" fill="none" stroke="#1e3a8a" stroke-width="6"/>
    <circle cx="60" cy="60" r="32" fill="none" stroke="#f59e0b" stroke-width="2.5"/>
    <circle cx="60" cy="60" r="20" fill="none" stroke="#1e3a8a" stroke-width="2.5"/>
    <circle cx="60" cy="60" r="9" fill="#dc2626" stroke="#fff" stroke-width="2"/>
    <use href="#mission-a"/>
    <use href="#mission-a" transform="rotate(90 60 60)"/>
    <use href="#mission-a" transform="rotate(180 60 60)"/>
    <use href="#mission-a" transform="rotate(270 60 60)"/>
    <g transform="rotate(45 -42.426 102.426)">
      <g fill="#fff" stroke="#fff" stroke-linejoin="round">
        <path stroke-linecap="round" stroke-width="8" d="M0 5v59"/>
        <path d="m0-2-8 12 8-4 8 4Z"/>
        <rect width="12" height="10" x="-6" y="11" rx="4"/>
        <path d="m-3 37-11 7v20l11-7ZM3 37l11 7v20L3 57Z"/>
      </g>
      <path fill="#f59e0b" d="m0 0-6 9 6-3 6 3Z"/>
      <rect width="8" height="6" x="-4" y="13" fill="#1e3a8a" rx="2"/>
      <path stroke="#f59e0b" stroke-linecap="round" stroke-width="4" d="M0 5v57"/>
      <path fill="#dc2626" d="m-2 39-10 7v16l10-7ZM2 39l10 7v16L2 55Z"/>
    </g>
  </symbol>

  <symbol id="values" viewBox="-10 -10 140 140" aria-label="Mongolian Style Values Icon">
    <defs>
      <path id="values-a" fill="#dc2626" d="M60 12C45 12 38-2 52 2c6 2 6 8 8 8s2-6 8-8c14-4 7 10-8 10"/>
    </defs>
    <g fill="none">
      <circle cx="60" cy="60" r="45" stroke="#1e3a8a" stroke-width="6"/>
      <circle cx="60" cy="60" r="32" stroke="#f59e0b" stroke-dasharray="4 4" stroke-width="2.5"/>
    </g>
    <use href="#values-a"/>
    <use href="#values-a" transform="rotate(90 60 60)"/>
    <use href="#values-a" transform="rotate(180 60 60)"/>
    <use href="#values-a" transform="rotate(270 60 60)"/>
    <rect width="6" height="70" x="36" y="25" fill="#1e3a8a" rx="2"/>
    <rect width="6" height="70" x="78" y="25" fill="#1e3a8a" rx="2"/>
    <rect width="28" height="5" x="46" y="30" fill="#f59e0b" rx="1.5"/>
    <rect width="28" height="5" x="46" y="85" fill="#f59e0b" rx="1.5"/>
    <path fill="#dc2626" stroke="#fff" stroke-linejoin="round" d="M54 39h12l-6 5zM54 81h12l-6-5z"/>
    <circle cx="60" cy="60" r="14" fill="#fff" stroke="#1e3a8a" stroke-width="2.5"/>
    <path fill="#dc2626" d="M60 46a14 14 0 0 1 0 28 7 7 0 0 0 0-14 7 7 0 0 1 0-14"/>
    <path fill="#f59e0b" d="M60 46a14 14 0 0 0 0 28 7 7 0 0 1 0-14 7 7 0 0 0 0-14"/>
  </symbol>

  <symbol id="board-members" viewBox="-10 -10 140 140" aria-label="Mongolian Style Board Members Icon">
    <defs>
      <path id="board-a" fill="#dc2626" d="M60 12C45 12 38-2 52 2c6 2 6 8 8 8s2-6 8-8c14-4 7 10-8 10"/>
    </defs>
    <g fill="none">
      <circle cx="60" cy="60" r="45" stroke="#1e3a8a" stroke-width="6"/>
      <circle cx="60" cy="60" r="32" stroke="#f59e0b" stroke-width="2.5"/>
    </g>
    <use href="#board-a"/>
    <use href="#board-a" transform="rotate(90 60 60)"/>
    <use href="#board-a" transform="rotate(180 60 60)"/>
    <use href="#board-a" transform="rotate(270 60 60)"/>
    <g stroke="#fff" stroke-linejoin="round" stroke-width="2">
      <path fill="#1e3a8a" d="M44 63c-10 0-14 15-14 25h28c0-10-4-25-14-25Z"/>
      <path fill="#f59e0b" d="m44 53-7 8h14z"/>
      <circle cx="44" cy="49" r="3.5" fill="#dc2626"/>
      <path stroke="#f59e0b" stroke-linecap="round" stroke-width="2.5" d="M33 80h22"/>
      <path stroke-linecap="round" stroke-width="1.5" d="m44 63-6 9"/>
      <path fill="#1e3a8a" d="M76 63c-10 0-14 15-14 25h28c0-10-4-25-14-25Z"/>
      <path fill="#f59e0b" d="m76 53-7 8h14z"/>
      <circle cx="76" cy="49" r="3.5" fill="#dc2626"/>
      <path stroke="#f59e0b" stroke-linecap="round" stroke-width="2.5" d="M65 80h22"/>
      <path stroke-linecap="round" stroke-width="1.5" d="m76 63-6 9"/>
      <path fill="#1e3a8a" d="M60 54c-12 0-18 21-18 34h36c0-13-6-34-18-34Z"/>
      <path fill="#f59e0b" d="m60 42-9 10h18z"/>
      <circle cx="60" cy="37" r="4.5" fill="#dc2626"/>
      <path stroke="#f59e0b" stroke-linecap="round" stroke-width="3" d="M45 78h30"/>
      <path stroke-linecap="round" d="m60 54-8 12"/>
    </g>
  </symbol>

  <symbol id="facebook" viewBox="0 0 48 48">
    <path d="M26 48H3c-2 0-3-1-3-3V3c0-2 1-3 3-3h42c2 0 3 1 3 3v42c0 2-1 3-3 3H33V29h6l1-7h-7v-4c0-3 1-4 4-4h4V8l-6-1c-6 0-9 4-9 10v5h-7v7h7v19Z" fill="#4460A0" fill-rule="evenodd"/>
  </symbol>

  <symbol id="burger-menu" viewBox="0 0 24 24">
    <path d="M4 18h16M4 12h16M4 6h16" stroke="#383838" stroke-width="2" stroke-linecap="round" fill="none"/>
  </symbol>

  <symbol id="close-menu" viewBox="0 0 24 24">
    <circle cx="12" cy="12" r="10" stroke="#1C274C" stroke-width="1.5" fill="none"/>
    <path d="m14.5 9.5-5 5m0-5 5 5" stroke="#1C274C" stroke-width="1.5" stroke-linecap="round" fill="none"/>
  </symbol>

  <symbol id="google-logo" viewBox="0 0 48 48">
    <path fill="#4285F4" d="M47.5 24.5c0-1.6-.1-3.2-.4-4.7H24v8.9h13.2c-.6 3-2.3 5.5-4.9 7.2v6h7.9c4.6-4.2 7.3-10.5 7.3-17.4z"/>
    <path fill="#34A853" d="M24 48c6.5 0 11.9-2.1 15.9-5.8l-7.9-6c-2.2 1.5-5 2.3-8 2.3-6.1 0-11.3-4.1-13.2-9.7H2.7v6.2C6.7 42.8 14.8 48 24 48z"/>
    <path fill="#FBBC05" d="M10.8 28.8c-.5-1.5-.8-3-.8-4.8s.3-3.3.8-4.8v-6.2H2.7C1 16.5 0 20.1 0 24s1 7.5 2.7 11z"/>
    <path fill="#EA4335" d="M24 9.5c3.4 0 6.5 1.2 8.9 3.5l6.7-6.7C35.9 2.4 30.4 0 24 0 14.8 0 6.7 5.2 2.7 13l8.1 6.2C12.7 13.6 17.9 9.5 24 9.5z"/>
  </symbol>

  <symbol id="event-date" viewBox="0 0 24 24">
    <rect x="3" y="4" width="18" height="18" rx="2" ry="2" fill="none" stroke="currentColor" stroke-width="2" stroke-linecap="round" stroke-linejoin="round"/>
    <line x1="16" y1="2" x2="16" y2="6" stroke="currentColor" stroke-width="2" stroke-linecap="round"/>
    <line x1="8" y1="2" x2="8" y2="6" stroke="currentColor" stroke-width="2" stroke-linecap="round"/>
    <line x1="3" y1="10" x2="21" y2="10" stroke="currentColor" stroke-width="2" stroke-linecap="round"/>
  </symbol>

  <symbol id="event-time" viewBox="0 0 24 24">
    <circle cx="12" cy="12" r="10" fill="none" stroke="currentColor" stroke-width="2" stroke-linecap="round" stroke-linejoin="round"/>
    <polyline points="12 6 12 12 16 14" fill="none" stroke="currentColor" stroke-width="2" stroke-linecap="round" stroke-linejoin="round"/>
  </symbol>

  <symbol id="event-frequency" viewBox="0 0 24 24">
    <path d="M12 2.02c5.514 0 10 4.486 10 10s-4.486 10-10 10-10-4.486-10-10 4.486-10 10-10z" fill="none" stroke="currentColor" stroke-width="2" stroke-linecap="round" stroke-linejoin="round"/>
    <path d="M12 12l4 2" fill="none" stroke="currentColor" stroke-width="2" stroke-linecap="round" stroke-linejoin="round"/>
    <path d="M12 7v5" fill="none" stroke="currentColor" stroke-width="2" stroke-linecap="round" stroke-linejoin="round"/>
  </symbol>

  <symbol id="event-location" viewBox="0 0 24 24">
    <path d="M21 10c0 7-9 13-9 13s-9-6-9-13a9 9 0 0 1 18 0z" fill="none" stroke="currentColor" stroke-width="2" stroke-linecap="round" stroke-linejoin="round"/>
    <circle cx="12" cy="10" r="3" fill="none" stroke="currentColor" stroke-width="2" stroke-linecap="round" stroke-linejoin="round"/>
  </symbol>

  <symbol id="book-donate" viewBox="0 0 24 24" fill="none" stroke="currentColor" stroke-width="1.8" stroke-linecap="round" stroke-linejoin="round">
    <path d="M4 19.5A2.5 2.5 0 0 1 6.5 17H20"/>
    <path d="M6.5 2H20v20H6.5A2.5 2.5 0 0 1 4 19.5v-15A2.5 2.5 0 0 1 6.5 2z"/>
  </symbol>

  <symbol id="book-library" viewBox="0 0 24 24" fill="none" stroke="currentColor" stroke-width="1.8" stroke-linecap="round" stroke-linejoin="round">
    <path d="M2 3h6a4 4 0 0 1 4 4v14a3 3 0 0 0-3-3H2z"/>
    <path d="M22 3h-6a4 4 0 0 0-4 4v14a3 3 0 0 1 3-3h7z"/>
  </symbol>

  <symbol id="facebook-login" viewBox="0 0 24 24">
    <path fill="#1877F2" d="M24 12.073C24 5.405 18.627 0 12 0S0 5.405 0 12.073C0 18.1 4.388 23.094 10.125 24v-8.437H7.078v-3.49h3.047V9.41c0-3.025 1.792-4.697 4.533-4.697 1.312 0 2.686.236 2.686.236v2.97h-1.513c-1.491 0-1.956.93-1.956 1.887v2.267h3.328l-.532 3.49h-2.796V24C19.612 23.094 24 18.1 24 12.073z"/>
  </symbol>

</svg>
