<svg xmlns="http://www.w3.org/2000/svg" aria-label="Mongolian Style Values Icon" viewBox="-10 -10 140 140"><defs><path id="a" fill="#dc2626" d="M60 12C45 12 38-2 52 2c6 2 6 8 8 8s2-6 8-8c14-4 7 10-8 10"/></defs><g fill="none"><circle cx="60" cy="60" r="45" stroke="#1e3a8a" stroke-width="6"/><circle cx="60" cy="60" r="32" stroke="#f59e0b" stroke-dasharray="4 4" stroke-width="2.5"/></g><use href="#a"/><use href="#a" transform="rotate(90 60 60)"/><use href="#a" transform="rotate(180 60 60)"/><use href="#a" transform="rotate(270 60 60)"/><rect width="6" height="70" x="36" y="25" fill="#1e3a8a" rx="2"/><rect width="6" height="70" x="78" y="25" fill="#1e3a8a" rx="2"/><rect width="28" height="5" x="46" y="30" fill="#f59e0b" rx="1.5"/><rect width="28" height="5" x="46" y="85" fill="#f59e0b" rx="1.5"/><path fill="#dc2626" stroke="#fff" stroke-linejoin="round" d="M54 39h12l-6 5zM54 81h12l-6-5z"/><circle cx="60" cy="60" r="14" fill="#fff" stroke="#1e3a8a" stroke-width="2.5"/><path fill="#dc2626" d="M60 46a14 14 0 0 1 0 28 7 7 0 0 0 0-14 7 7 0 0 1 0-14"/><path fill="#f59e0b" d="M60 46a14 14 0 0 0 0 28 7 7 0 0 1 0-14 7 7 0 0 0 0-14"/></svg>